<?xml version="1.0" standalone="no"?>
<!DOCTYPE svg PUBLIC "-//W3C//DTD SVG 20010904//EN"
 "http://www.w3.org/TR/2001/REC-SVG-20010904/DTD/svg10.dtd">
<svg version="1.0" xmlns="http://www.w3.org/2000/svg"
 width="192.000000pt" height="192.000000pt" viewBox="0 0 192.000000 192.000000"
 preserveAspectRatio="xMidYMid meet">
<metadata>
Created by potrace 1.11, written by Peter Selinger 2001-2013
</metadata>
<g transform="translate(0.000000,192.000000) scale(0.100000,-0.100000)"
fill="#000000" stroke="none">
<path d="M552 1718 c-7 -7 -12 -18 -12 -25 0 -9 -10 -7 -32 7 -38 23 -110 27
-126 7 -9 -10 -6 -24 9 -54 22 -44 65 -72 128 -82 31 -6 33 -7 19 -22 -9 -9
-41 -65 -71 -125 -30 -60 -71 -133 -90 -161 -74 -110 -97 -227 -63 -321 l15
-42 -27 7 c-15 5 -51 8 -79 8 -46 0 -57 -4 -85 -33 -31 -31 -33 -36 -32 -105
1 -101 25 -148 138 -267 24 -25 57 -56 75 -70 18 -14 39 -31 46 -37 8 -7 18
-13 24 -13 6 0 11 -4 11 -10 0 -5 7 -10 16 -10 9 0 12 -5 8 -12 -4 -6 -3 -8 3
-5 5 3 40 -10 79 -28 38 -19 77 -35 87 -35 9 0 17 -4 17 -10 0 -5 3 -9 8 -8
19 6 130 -27 124 -36 -3 -6 1 -5 10 1 8 7 18 10 21 7 14 -15 189 -19 282 -8
33 4 72 8 88 8 15 1 27 5 27 10 0 4 9 6 20 3 11 -3 20 -1 20 5 0 6 11 8 25 5
14 -2 23 -2 21 1 -8 7 156 72 166 66 4 -3 8 0 8 6 0 6 12 16 28 23 61 27 170
110 216 165 6 7 18 22 27 32 22 23 90 140 82 140 -3 0 -1 6 5 13 15 18 24 73
27 167 3 90 10 127 31 169 20 37 17 91 -6 128 -47 78 -142 92 -207 31 l-22
-20 -11 43 c-33 128 -69 187 -132 218 -35 17 -64 21 -139 22 -69 0 -88 3 -71
10 13 5 28 6 33 3 5 -3 8 0 7 8 -2 7 5 12 14 12 10 -1 16 3 15 10 -1 6 5 10
13 8 8 -2 12 0 7 4 -4 4 0 16 10 26 9 10 18 42 21 73 4 52 3 55 -18 55 -50 0
-106 -42 -132 -100 -5 -11 -7 -9 -7 7 -1 30 -34 47 -61 33 -20 -11 -23 -23
-22 -111 0 -44 -1 -46 -26 -43 -60 8 -169 5 -196 -6 -16 -6 -41 -19 -56 -30
l-28 -20 -63 63 c-35 34 -79 74 -97 88 -27 21 -33 34 -38 74 -3 28 -10 60 -16
73 -12 24 -47 29 -66 10z"/>
</g>
</svg>
